# File created by Blade
# Date/Time:  Thu Jan 15 19:03:44 2015
#---------------------------------------------------------
:version 1.10
:name HOM
:units
  mass 1.0
  length 1.000000
  angle deg
:documentation
     Acclaim Skeleton File
:root
   axis xyz
   order TX TY TZ RX RY RZ
   position 0.000000 0.000000 0.000000
   orientation 0 0 0
:bonedata
   begin
      id 1
      name Spine_dum
      direction 0.000000 1.000000 0.000000
      length 4.354460
      axis 0.0 0.0 0.0 xyz
   end
   begin
      id 2
      name LeftUpLeg_dum
      direction 1.000000 0.000000 0.000000
      length 4.291077
      axis 0.0 0.0 0.0 xyz
   end
   begin
      id 3
      name RightUpLeg_dum
      direction -1.000000 0.000000 0.000000
      length 4.291077
      axis 0.0 0.0 0.0 xyz
   end
   begin
      id 4
      name Spine
      direction 0.000000 1.000000 0.000000
      length 0.000000
      axis 0.0 0.0 0.0 xyz
      dof rx ry rz
   end
   begin
      id 5
      name Spine_dum1
      direction 0.000000 1.000000 0.000000
      length 16.581769
      axis 0.0 0.0 0.0 xyz
   end
   begin
      id 6
      name Spine_dum2
      direction 0.000000 1.000000 0.000000
      length 12.903700
      axis 0.0 0.0 0.0 xyz
   end
   begin
      id 7
      name Spine_dum3
      direction 0.000000 1.000000 0.000000
      length 12.903700
      axis 0.0 0.0 0.0 xyz
   end
   begin
      id 8
      name Head
      direction 0.000000 1.000000 0.000000
      length 4.527550
      axis 0.0 0.0 0.0 xyz
      dof rx ry rz
   end
   begin
      id 9
      name LeftShoulder
      direction 1.000000 0.000000 0.000000
      length 6.942033
      axis 0.0 0.0 -90.0 xyz
      dof rx ry rz
   end
   begin
      id 10
      name LeftArm
      direction 1.000000 0.000000 0.000000
      length 11.010391
      axis 0.0 0.0 -90.0 xyz
      dof rx ry rz
   end
   begin
      id 11
      name LeftForeArm
      direction 1.000000 0.000000 0.000000
      length 8.054994
      axis 0.0 0.0 -90.0 xyz
      dof rz ry rx
   end
   begin
      id 12
      name LeftHand
      direction 0.000000 0.000000 0.000000
      length 0.000000
      axis 0.0 0.0 -90.0 xyz
      dof rx ry rz
   end
   begin
      id 13
      name LeftHand_dum1
      direction 0.000000 0.000000 0.000000
      length 0.000000
      axis 0.0 0.0 -90.0 xyz
   end
   begin
      id 14
      name LeftHand_dum2
      direction 1.000000 0.000000 0.000000
      length 3.937000
      axis 0.0 0.0 -90.0 xyz
   end
   begin
      id 15
      name LeftHandThumb1
      direction 0.000000 0.000000 1.000000
      length 3.937000
      axis 0.0 0.0 -90.0 xyz
      dof rx ry rz
   end
   begin
      id 16
      name RightShoulder
      direction -1.000000 0.000000 0.000000
      length 6.942033
      axis 0.0 0.0 90.0 xyz
      dof rx ry rz
   end
   begin
      id 17
      name RightArm
      direction -1.000000 0.000000 0.000000
      length 11.010391
      axis 0.0 0.0 90.0 xyz
      dof rx ry rz
   end
   begin
      id 18
      name RightForeArm
      direction -1.000000 0.000000 0.000000
      length 8.054994
      axis 0.0 0.0 90.0 xyz
      dof rz ry rx
   end
   begin
      id 19
      name RightHand
      direction 0.000000 0.000000 0.000000
      length 0.000000
      axis 0.0 0.0 90.0 xyz
      dof rx ry rz
   end
   begin
      id 20
      name RightHand_dum1
      direction 0.000000 0.000000 0.000000
      length 0.000000
      axis 0.0 0.0 90.0 xyz
   end
   begin
      id 21
      name RightHand_dum2
      direction -1.000000 0.000000 0.000000
      length 3.937000
      axis 0.0 0.0 90.0 xyz
   end
   begin
      id 22
      name RightHandThumb1
      direction 0.000000 0.000000 1.000000
      length 3.937000
      axis 0.0 0.0 90.0 xyz
      dof rx ry rz
   end
   begin
      id 23
      name LeftUpLeg
      direction 0.000000 -1.000000 0.000000
      length 17.039958
      axis 0.0 0.0 0.0 xyz
      dof rx ry rz
   end
   begin
      id 24
      name LeftLeg
      direction 0.000000 -1.000000 0.000000
      length 16.939743
      axis 0.0 0.0 0.0 xyz
      dof rx ry rz
   end
   begin
      id 25
      name LeftFoot
      direction 0.000000 -0.258819 0.965926
      length 5.235044
      axis 15.0 0.0 0.0 xyz
      dof rx ry rz
   end
   begin
      id 26
      name LeftToeBase
      direction 0.000000 0.000000 1.000000
      length 2.952750
      axis 0.0 0.0 0.0 xyz
      dof rx ry rz
   end
   begin
      id 27
      name RightUpLeg
      direction 0.000000 -1.000000 0.000000
      length 17.039958
      axis 0.0 0.0 0.0 xyz
      dof rx ry rz
   end
   begin
      id 28
      name RightLeg
      direction 0.000000 -1.000000 0.000000
      length 16.939743
      axis 0.0 0.0 0.0 xyz
      dof rx ry rz
   end
   begin
      id 29
      name RightFoot
      direction 0.000000 -0.258819 0.965926
      length 5.235044
      axis 15.0 0.0 0.0 xyz
      dof rx ry rz
   end
   begin
      id 30
      name RightToeBase
      direction 0.000000 0.000000 1.000000
      length 2.952750
      axis 0.0 0.0 0.0 xyz
      dof rx ry rz
   end
:hierarchy
   begin
      root Spine_dum LeftUpLeg_dum RightUpLeg_dum
      Spine_dum Spine
      LeftUpLeg_dum LeftUpLeg
      RightUpLeg_dum RightUpLeg
      Spine Spine_dum1 Spine_dum2 Spine_dum3
      Spine_dum1 Head
      Spine_dum2 LeftShoulder
      Spine_dum3 RightShoulder
      LeftShoulder LeftArm
      LeftArm LeftForeArm
      LeftForeArm LeftHand
      LeftHand LeftHand_dum1 LeftHand_dum2
      LeftHand_dum1 LeftHandThumb1
      RightShoulder RightArm
      RightArm RightForeArm
      RightForeArm RightHand
      RightHand RightHand_dum1 RightHand_dum2
      RightHand_dum1 RightHandThumb1
      LeftUpLeg LeftLeg
      LeftLeg LeftFoot
      LeftFoot LeftToeBase
      RightUpLeg RightLeg
      RightLeg RightFoot
      RightFoot RightToeBase
   end

# File created by Blade
# Date/Time:  Thu Jan 15 19:03:33 2015
# Frame Rate: 120.000 fps
#------------------------------------------------------
:FULLY-SPECIFIED
:DEGREES
1262
root 3.833420 35.738189 -10.665845 -177.267914 4.804939 -179.351937
Spine -11.493425 13.035493 -4.288165
Head 4.350325 -5.199397 8.519245
LeftShoulder -0.797054 14.427649 1.207549
LeftArm 45.501876 2.941800 -45.309212
LeftForeArm -0.000000 11.285962 68.965173
LeftHand 4.938729 -0.000000 -5.893684
LeftHandThumb1 -26.253704 33.147579 0.000000
RightShoulder -9.108803 -3.987062 -2.053813
RightArm 37.659680 -8.184554 52.900227
RightForeArm 0.000000 -34.228270 85.388250
RightHand 4.400655 -0.000000 14.733542
RightHandThumb1 -24.326973 -32.862282 -0.000000
LeftUpLeg -1.677343 12.046434 0.569345
LeftLeg 6.971529 -0.000000 -0.000000
LeftFoot -20.499086 26.385448 -12.642019
LeftToeBase 19.697257 -0.000000 -0.000000
RightUpLeg 1.038776 -2.761266 1.909651
RightLeg 0.218204 -0.000000 -0.000000
RightFoot -15.864755 -25.423974 7.277744
RightToeBase 19.420787 -0.000000 -0.000000
1263
root 3.880831 35.743208 -10.648482 -177.241111 4.737212 -179.387497
Spine -11.326408 12.986845 -4.316922
Head 4.326982 -5.167101 8.530956
LeftShoulder -1.238995 14.818476 0.917656
LeftArm 44.162408 3.718704 -45.386747
LeftForeArm -0.000000 13.016299 68.289144
LeftHand 5.320216 0.000000 -5.188777
LeftHandThumb1 -26.253704 33.147579 0.000000
RightShoulder -9.640763 -4.488826 -1.637262
RightArm 36.898705 -8.937338 52.620128
RightForeArm -0.000000 -35.284172 84.931076
RightHand 4.641047 -0.000000 14.517315
RightHandThumb1 -24.326973 -32.862282 -0.000000
LeftUpLeg -1.961570 11.795101 0.585704
LeftLeg 7.398590 -0.000000 -0.000000
LeftFoot -20.555827 26.572926 -12.760222
LeftToeBase 19.607010 -0.000000 -0.000000
RightUpLeg 1.009570 -2.817935 1.955752
RightLeg 0.187822 -0.000000 -0.000000
RightFoot -15.823052 -25.446510 7.210920
RightToeBase 19.438368 -0.000000 -0.000000
1264
root 3.924773 35.749613 -10.631154 -177.250328 4.643846 -179.470945
Spine -11.122072 12.954300 -4.393872
Head 4.286372 -5.137768 8.590224
LeftShoulder -1.618800 15.147359 0.627994
LeftArm 42.825400 4.477356 -45.558734
LeftForeArm 0.000000 14.414294 67.436891
LeftHand 5.523694 -0.000000 -4.603490
LeftHandThumb1 -26.253704 33.147579 0.000000
RightShoulder -10.264411 -5.047302 -1.202780
RightArm 36.177327 -9.946267 51.939558
RightForeArm -0.000000 -35.923071 84.408211
RightHand 4.300122 -0.000000 13.236104
RightHandThumb1 -24.326973 -32.862282 -0.000000
LeftUpLeg -2.226349 11.558532 0.556775
LeftLeg 7.841983 -0.000000 -0.000000
LeftFoot -20.540514 26.715979 -12.843388
LeftToeBase 19.443259 -0.000000 -0.000000
RightUpLeg 1.021574 -2.908350 1.949924
RightLeg 0.143227 -0.000000 -0.000000
RightFoot -15.779982 -25.466391 7.139191
RightToeBase 19.451858 -0.000000 -0.000000
1265
root 3.968093 35.755170 -10.606238 -177.208298 4.493623 -179.542787
Spine -10.958873 12.894943 -4.463142
Head 4.260380 -5.149142 8.614651
LeftShoulder -1.995095 15.542795 0.287370
LeftArm 41.672385 5.109350 -45.822354
LeftForeArm 0.000000 16.027548 66.255909
LeftHand 5.789814 0.000000 -4.016728
LeftHandThumb1 -26.253704 33.147579 0.000000
RightShoulder -10.905235 -5.714427 -0.714368
RightArm 35.616287 -10.835867 51.290782
RightForeArm -0.000000 -36.281486 83.664182
RightHand 3.891323 0.000000 11.982448
RightHandThumb1 -24.326973 -32.862282 -0.000000
LeftUpLeg -2.597843 11.232192 0.524744
LeftLeg 8.356181 -0.000000 -0.000000
LeftFoot -20.554747 26.910493 -12.904527
LeftToeBase 19.395756 -0.000000 -0.000000
RightUpLeg 0.964794 -3.082334 1.961030
RightLeg 0.117595 -0.000000 -0.000000
RightFoot -15.750867 -25.449577 7.068617
RightToeBase 19.471770 -0.000000 -0.000000
